<?xml version="1.0" standalone="no"?>
<!DOCTYPE svg PUBLIC "-//W3C//DTD SVG 20010904//EN"
 "http://www.w3.org/TR/2001/REC-SVG-20010904/DTD/svg10.dtd">
<svg version="1.0" xmlns="http://www.w3.org/2000/svg"
 width="36.5pt" height="26.8pt" viewBox="0 0 365.000000 268.000000"
 preserveAspectRatio="xMidYMid meet">

<g transform="translate(0.000000,268.000000) scale(0.100000,-0.100000)"
fill="#000000" stroke="none">
<path d="M1390 2649 c-340 -20 -477 -48 -646 -128 -177 -85 -316 -192 -428
-333 -140 -175 -212 -331 -258 -562 -30 -149 -32 -428 -5 -554 115 -521 501
-911 1007 -1013 226 -46 1000 -60 1530 -29 538 32 989 96 1031 147 41 49 -130
77 -553 92 -248 9 -880 0 -983 -14 l-40 -6 45 38 c100 84 221 209 276 286 75
103 154 260 184 365 19 65 28 84 44 87 12 2 158 20 326 40 168 21 306 38 308
40 5 5 -34 295 -41 302 -4 3 -125 -8 -270 -25 -144 -18 -272 -32 -284 -32 -19
0 -22 7 -28 68 -32 326 -158 597 -379 817 -56 55 -131 120 -168 144 -37 25
-67 46 -65 47 1 1 121 -2 267 -7 576 -21 1170 20 1170 80 0 62 -428 122 -1070
151 -258 11 -771 11 -970 -1z m98 -295 c226 -78 433 -234 562 -425 63 -92 128
-236 155 -344 26 -101 44 -285 29 -285 -5 -1 -129 -16 -276 -34 l-268 -32 -9
30 c-6 17 -76 269 -157 561 -80 291 -149 535 -151 542 -8 20 31 16 115 -13z
m-513 -16 c-2 -13 -64 -419 -136 -903 -72 -484 -133 -882 -135 -884 -7 -8 -83
49 -150 111 -264 247 -382 612 -300 931 28 110 93 254 155 345 114 169 302
321 490 399 71 29 83 29 76 1z m443 -1133 c-6 -6 -339 -47 -344 -42 -5 5 105
926 113 947 3 8 57 -191 121 -443 63 -252 113 -460 110 -462z m766 -247 c-10
-34 -90 -156 -142 -216 -57 -68 -162 -156 -172 -145 -10 10 -95 322 -89 326 2
2 94 15 204 29 110 14 201 26 203 27 2 0 0 -9 -4 -21z m-628 -292 c30 -120 53
-220 51 -222 -10 -11 -173 -46 -247 -53 -91 -10 -270 0 -339 19 -32 8 -41 15
-41 33 1 46 47 377 54 385 8 8 408 61 445 59 22 -2 26 -15 77 -221z"/>
</g>
</svg>
